<svg width="22" height="24" viewBox="0 0 22 24" fill="none" xmlns="http://www.w3.org/2000/svg">
<g id="icon / ionicons / logos /  logo-discord">
<path id="Vector" d="M19.9375 3.11812C19.9321 2.5014 19.704 1.91187 19.3028 1.47735C18.9016 1.04282 18.3596 0.798327 17.7942 0.796875L4.19547 0.75C3.6307 0.750122 3.08901 0.994542 2.68918 1.42967C2.28934 1.8648 2.06398 2.45514 2.0625 3.07125V18.375C2.0625 19.6547 3.01984 20.625 4.19547 20.625H15.8125L15.2539 18.5625L19.9375 23.25V3.11812ZM13.9498 15.4598C13.9498 15.4598 13.5751 14.9728 13.2623 14.5542C14.6261 14.1352 15.1465 13.2188 15.1465 13.2188C14.7719 13.4898 14.3705 13.7139 13.9498 13.8867C13.4641 14.1067 12.9584 14.27 12.4412 14.3738C11.55 14.5523 10.6361 14.5485 9.74617 14.3625C9.2227 14.2564 8.71036 14.0931 8.21691 13.875C7.95587 13.7659 7.70204 13.6373 7.45723 13.4902C7.42586 13.4677 7.39492 13.4564 7.36355 13.4334C7.3425 13.4222 7.33219 13.4109 7.32059 13.4109C7.13324 13.2975 7.02926 13.2183 7.02926 13.2183C7.02926 13.2183 7.52855 14.1131 8.85027 14.543C8.53789 14.9733 8.15289 15.4716 8.15289 15.4716C5.85363 15.3923 4.97965 13.762 4.97965 13.762C4.97965 10.1498 6.47797 7.21734 6.47797 7.21734C7.97629 6.00563 9.39125 6.03984 9.39125 6.03984L9.49523 6.17578C7.62223 6.75328 6.7693 7.64766 6.7693 7.64766C6.7693 7.64766 6.99789 7.51172 7.38289 7.33031C8.49621 6.79828 9.38094 6.66234 9.74617 6.61734C9.80446 6.60413 9.8637 6.59644 9.9232 6.59437C10.6204 6.49568 11.3259 6.48813 12.0248 6.57187C13.1221 6.70938 14.1852 7.07453 15.1568 7.64766C15.1568 7.64766 14.3348 6.79688 12.5658 6.22031L12.7114 6.03937C12.7114 6.03937 14.1367 6.00516 15.6252 7.21875C15.6252 7.21875 17.1235 10.1512 17.1235 13.7634C17.1235 13.7503 16.2491 15.3806 13.9498 15.4598Z" fill="#F5F5F5"/>
<path id="Vector_2" d="M9.11153 10.2188C8.51856 10.2188 8.0502 10.7738 8.0502 11.4642C8.0502 12.1547 8.52887 12.7097 9.11153 12.7097C9.7045 12.7097 10.1729 12.1552 10.1729 11.4642C10.1836 10.7723 9.7045 10.2188 9.11153 10.2188Z" fill="#F5F5F5"/>
<path id="Vector_3" d="M12.9091 10.2188C12.3161 10.2188 11.8478 10.7738 11.8478 11.4642C11.8478 12.1547 12.3264 12.7097 12.9091 12.7097C13.5025 12.7097 13.9704 12.1552 13.9704 11.4642C13.9704 10.7733 13.4922 10.2188 12.9091 10.2188Z" fill="#F5F5F5"/>
</g>
</svg>
