<svg width="23" height="24" viewBox="0 0 23 24" fill="none" xmlns="http://www.w3.org/2000/svg">
<g id="icon / ionicons / logos /  logo-tiktok">
<path id="Vector" d="M18.5163 5.56219C18.3708 5.4837 18.2291 5.39765 18.0918 5.30438C17.6926 5.02896 17.3265 4.70445 17.0016 4.33781C16.1885 3.36703 15.8848 2.38219 15.773 1.69266H15.7775C15.684 1.12031 15.7227 0.75 15.7285 0.75H12.0251V15.6928C12.0251 15.8934 12.0251 16.0917 12.0171 16.2877C12.0171 16.312 12.0148 16.3345 12.0135 16.3608C12.0135 16.3716 12.0135 16.3828 12.0112 16.3941C12.0112 16.3969 12.0112 16.3997 12.0112 16.4025C11.9722 16.9386 11.8075 17.4566 11.5316 17.9107C11.2557 18.3648 10.8771 18.7413 10.4291 19.0069C9.96212 19.2841 9.434 19.4295 8.89678 19.4288C7.17133 19.4288 5.77291 17.9606 5.77291 16.1475C5.77291 14.3344 7.17133 12.8663 8.89678 12.8663C9.2234 12.8659 9.54801 12.9196 9.85856 13.0252L9.86305 9.09047C8.9203 8.9634 7.96255 9.04158 7.05021 9.32008C6.13787 9.59858 5.29074 10.0714 4.56227 10.7086C3.92396 11.2873 3.38733 11.9778 2.97652 12.7491C2.8202 13.0303 2.23037 14.1605 2.15895 15.9947C2.11402 17.0358 2.41365 18.1144 2.5565 18.5602V18.5695C2.64635 18.832 2.99449 19.7278 3.56186 20.483C4.01936 21.0887 4.55988 21.6208 5.16602 22.0622V22.0528L5.175 22.0622C6.96783 23.3334 8.95563 23.25 8.95563 23.25C9.29973 23.2355 10.4524 23.25 11.7614 22.6027C13.2133 21.885 14.0399 20.8158 14.0399 20.8158C14.5679 20.1769 14.9878 19.4488 15.2815 18.6628C15.6166 17.7436 15.7285 16.6411 15.7285 16.2005V8.27297C15.7734 8.30109 16.3718 8.71406 16.3718 8.71406C16.3718 8.71406 17.2338 9.29063 18.5788 9.66609C19.5437 9.93328 20.8438 9.98953 20.8438 9.98953V6.15328C20.3882 6.20484 19.4633 6.05484 18.5163 5.56219Z" fill="#F5F5F5"/>
</g>
</svg>
